<svg xmlns="http://www.w3.org/2000/svg" viewBox="0 0 32 32">
  <rect width="32" height="32" rx="4" fill="#0a0a0f"/>
  <!-- Pixelated 0 -->
  <rect x="8" y="4" width="4" height="4" fill="#7c3aed"/>
  <rect x="12" y="4" width="4" height="4" fill="#7c3aed"/>
  <rect x="16" y="4" width="4" height="4" fill="#7c3aed"/>
  <rect x="4" y="8" width="4" height="4" fill="#7c3aed"/>
  <rect x="8" y="8" width="4" height="4" fill="#7c3aed"/>
  <rect x="20" y="8" width="4" height="4" fill="#7c3aed"/>
  <rect x="24" y="8" width="4" height="4" fill="#7c3aed"/>
  <rect x="4" y="12" width="4" height="4" fill="#7c3aed"/>
  <rect x="20" y="12" width="4" height="4" fill="#22d3ee"/>
  <rect x="24" y="12" width="4" height="4" fill="#7c3aed"/>
  <rect x="4" y="16" width="4" height="4" fill="#7c3aed"/>
  <rect x="24" y="16" width="4" height="4" fill="#7c3aed"/>
  <rect x="4" y="20" width="4" height="4" fill="#7c3aed"/>
  <rect x="8" y="20" width="4" height="4" fill="#22d3ee"/>
  <rect x="24" y="20" width="4" height="4" fill="#7c3aed"/>
  <rect x="8" y="24" width="4" height="4" fill="#7c3aed"/>
  <rect x="12" y="24" width="4" height="4" fill="#7c3aed"/>
  <rect x="16" y="24" width="4" height="4" fill="#7c3aed"/>
  <rect x="20" y="24" width="4" height="4" fill="#7c3aed"/>
</svg>
