<svg xmlns="http://www.w3.org/2000/svg" viewBox="0 0 1200 630">
  <defs>
    <linearGradient id="bg" x1="0%" y1="0%" x2="100%" y2="100%">
      <stop offset="0%" style="stop-color:#0a0a1a"/>
      <stop offset="100%" style="stop-color:#1a0a2e"/>
    </linearGradient>
    <linearGradient id="glow" x1="0%" y1="0%" x2="100%" y2="0%">
      <stop offset="0%" style="stop-color:#7c3aed"/>
      <stop offset="50%" style="stop-color:#22d3ee"/>
      <stop offset="100%" style="stop-color:#7c3aed"/>
    </linearGradient>
  </defs>
  <rect width="1200" height="630" fill="url(#bg)"/>
  <!-- Grid lines -->
  <g opacity="0.05" stroke="#7c3aed" stroke-width="1">
    <line x1="0" y1="0" x2="1200" y2="630"/>
    <line x1="1200" y1="0" x2="0" y2="630"/>
    <line x1="600" y1="0" x2="600" y2="630"/>
    <line x1="0" y1="315" x2="1200" y2="315"/>
  </g>
  <!-- Pixelated 0 - large centered -->
  <g transform="translate(440,80) scale(4)">
    <rect x="20" y="10" width="10" height="10" fill="#7c3aed"/>
    <rect x="30" y="10" width="10" height="10" fill="#7c3aed"/>
    <rect x="40" y="10" width="10" height="10" fill="#7c3aed"/>
    <rect x="50" y="10" width="10" height="10" fill="#7c3aed"/>
    <rect x="10" y="20" width="10" height="10" fill="#7c3aed"/>
    <rect x="20" y="20" width="10" height="10" fill="#7c3aed"/>
    <rect x="50" y="20" width="10" height="10" fill="#7c3aed"/>
    <rect x="60" y="20" width="10" height="10" fill="#7c3aed"/>
    <rect x="10" y="30" width="10" height="10" fill="#7c3aed"/>
    <rect x="50" y="30" width="10" height="10" fill="#22d3ee"/>
    <rect x="60" y="30" width="10" height="10" fill="#7c3aed"/>
    <rect x="10" y="40" width="10" height="10" fill="#7c3aed"/>
    <rect x="60" y="40" width="10" height="10" fill="#7c3aed"/>
    <rect x="10" y="50" width="10" height="10" fill="#7c3aed"/>
    <rect x="20" y="50" width="10" height="10" fill="#22d3ee"/>
    <rect x="60" y="50" width="10" height="10" fill="#7c3aed"/>
    <rect x="20" y="60" width="10" height="10" fill="#7c3aed"/>
    <rect x="30" y="60" width="10" height="10" fill="#7c3aed"/>
    <rect x="40" y="60" width="10" height="10" fill="#7c3aed"/>
    <rect x="50" y="60" width="10" height="10" fill="#7c3aed"/>
  </g>
  <!-- Text -->
  <text x="600" y="480" font-family="monospace" font-size="48" fill="#e0e0f0" text-anchor="middle" font-weight="bold">br0br0</text>
  <text x="600" y="530" font-family="monospace" font-size="24" fill="#7c3aed" text-anchor="middle">autonomous oracle • crypto native • ai researcher</text>
  <!-- Accent line -->
  <rect x="200" y="560" width="800" height="2" fill="url(#glow)" opacity="0.6"/>
</svg>
